<svg id="_6.svg" data-name="6.svg" xmlns="http://www.w3.org/2000/svg" width="42" height="42" viewBox="0 0 42 42">
  <defs>
    <style>
      .cls-1 {
        fill: #fff;
        fill-opacity: 0;
        stroke: #fbc02d;
        stroke-linejoin: round;
        stroke-width: 2px;
      }

      .cls-2 {
        fill-rule: evenodd;
      }
    </style>
  </defs>
  <circle id="Ellipse_7_copy_9" data-name="Ellipse 7 copy 9" class="cls-1" cx="21" cy="21" r="20"/>
  <path class="cls-2" d="M418.564,537.246a0.547,0.547,0,0,0,.5.353h0a0.7,0.7,0,0,0,.523-0.279,20.048,20.048,0,0,0,2.363-2.908,0.987,0.987,0,0,0-.027-0.922,0.683,0.683,0,0,0-.588-0.294H410.744a0.687,0.687,0,0,0-.6.293,0.987,0.987,0,0,0-.027.922,20.053,20.053,0,0,0,2.364,2.908,0.7,0.7,0,0,0,.522.279,0.549,0.549,0,0,0,.5-0.353l0-.008,0.6,1.465-1.866,11.847a0.333,0.333,0,0,0,.1.292l3.471,3.328a0.325,0.325,0,0,0,.451,0l3.471-3.328a0.333,0.333,0,0,0,.1-0.292L417.964,538.7l0.6-1.464Zm2.771-3.389a0.118,0.118,0,0,1,.047.006,0.436,0.436,0,0,1-.041.307,20.622,20.622,0,0,1-2.234,2.7l-1.256-2.3,0.055-.014,3.352-.693A0.388,0.388,0,0,1,421.335,533.857Zm-3.3,0-0.269.056-0.019,0-0.083.021a0.959,0.959,0,0,0-.366.148h-2.522a0.961,0.961,0,0,0-.365-0.148l-0.083-.021-0.02,0-0.268-.056h4Zm-5.068,3.013a17.344,17.344,0,0,1-2.234-2.7,0.457,0.457,0,0,1-.044-0.3,0.1,0.1,0,0,1,.049-0.008,0.355,0.355,0,0,1,.075.009l3.355,0.693,0.054,0.014Zm6.191,13.612-3.121,2.993-1.168-1.121,3.955-3.991Zm-0.461-2.925-4.3,4.341-1.477-1.416,0.15-.953,5.126-5.172Zm-0.632-4.007-4.823,4.867,0.695-4.409,3.624-3.658Zm-3.953-.654,0.615-3.9h2.621l0.086,0.549Zm3.3-4.564h-2.741l-0.747-1.837,0.955-1.747H417.2l0.955,1.747Z" transform="translate(-395 -521)"/>
</svg>
