<svg id="_3.svg" data-name="3.svg" xmlns="http://www.w3.org/2000/svg" width="42" height="42" viewBox="0 0 42 42">
  <defs>
    <style>
      .cls-1 {
        fill: #fff;
        fill-opacity: 0;
        stroke: #fbc02d;
        stroke-linejoin: round;
        stroke-width: 2px;
      }

      .cls-2 {
        fill-rule: evenodd;
      }
    </style>
  </defs>
  <circle id="Ellipse_7_copy_6" data-name="Ellipse 7 copy 6" class="cls-1" cx="21" cy="21" r="20"/>
  <path class="cls-2" d="M425.339,348.619h-1.828a7.8,7.8,0,0,0,.061-0.921,5.9,5.9,0,0,0-2.136-4.863,0.4,0.4,0,0,0-.441,0,5.907,5.907,0,0,0-2.135,4.863,7.8,7.8,0,0,0,.06.921H406.49a0.391,0.391,0,0,0-.392.39v1.56a0.391,0.391,0,0,0,.392.39h5.75c0,0.006,0,.012.007,0.017l3.2,4.92-4.654,7.156H408.65a0.39,0.39,0,1,0,0,.78h2.356a0.394,0.394,0,0,0,.33-0.178l4.579-7.039,4.578,7.039a0.394,0.394,0,0,0,.33.178h2.356a0.39,0.39,0,1,0,0-.78h-2.142l-4.655-7.156,3.2-4.92a0.087,0.087,0,0,0,.007-0.017h5.75a0.39,0.39,0,0,0,.392-0.39v-1.56A0.39,0.39,0,0,0,425.339,348.619Zm-5.694-.921a5.346,5.346,0,0,1,1.571-4.052,5.348,5.348,0,0,1,1.57,4.052,7.018,7.018,0,0,1-.06.921h-3.02A6.85,6.85,0,0,1,419.645,347.7Zm-3.73,7.479-2.744-4.218h5.487Zm9.031-5H406.883V349.4h18.063v0.78Z" transform="translate(-395 -332)"/>
</svg>
