<svg id="_5.svg" data-name="5.svg" xmlns="http://www.w3.org/2000/svg" width="42" height="42" viewBox="0 0 42 42">
  <defs>
    <style>
      .cls-1 {
        fill: #fff;
        fill-opacity: 0;
        stroke: #fbc02d;
        stroke-linejoin: round;
        stroke-width: 2px;
      }

      .cls-2 {
        fill-rule: evenodd;
      }
    </style>
  </defs>
  <circle id="Ellipse_7_copy_8" data-name="Ellipse 7 copy 8" class="cls-1" cx="21" cy="21" r="20"/>
  <path class="cls-2" d="M417.463,477.328a0.35,0.35,0,0,0,.311.192,0.344,0.344,0,0,0,.157-0.039,29.882,29.882,0,0,1,3.076-1.382,0.353,0.353,0,0,0,.227-0.441,0.348,0.348,0,0,0-.437-0.229,29.9,29.9,0,0,0-3.182,1.427A0.352,0.352,0,0,0,417.463,477.328Zm0.311-4.022a0.343,0.343,0,0,0,.157-0.038,29.882,29.882,0,0,1,3.076-1.382,0.353,0.353,0,0,0,.227-0.441,0.347,0.347,0,0,0-.437-0.229,29.742,29.742,0,0,0-3.182,1.426,0.354,0.354,0,0,0-.152.473A0.349,0.349,0,0,0,417.774,473.306Zm8.343-.7a0.349,0.349,0,0,0-.347.351v13.694a1.05,1.05,0,0,1-1.043,1.053h-8.344v-0.808a10.154,10.154,0,0,1,3.129-.6,17.772,17.772,0,0,1,5.105.684,0.349,0.349,0,0,0,.457-0.333V471.2a0.35,0.35,0,0,0-.272-0.343s-0.272-.061-0.738-0.148a0.351,0.351,0,0,0-.126.691c0.177,0.033.326,0.062,0.441,0.085v14.7a19.426,19.426,0,0,0-4.867-.587,10.846,10.846,0,0,0-3.464.673,8.066,8.066,0,0,0-3.142-.673,23.171,23.171,0,0,0-5.215.6V471.471a22.71,22.71,0,0,1,5.215-.622,7.479,7.479,0,0,1,2.781.578v13.817a0.353,0.353,0,0,0,.176.306,0.347,0.347,0,0,0,.351,0,39.577,39.577,0,0,1,6.536-3.128,0.349,0.349,0,0,0,.238-0.333V467.689a0.352,0.352,0,0,0-.15-0.289,0.341,0.341,0,0,0-.32-0.04,36.751,36.751,0,0,0-5.624,2.84,0.353,0.353,0,0,0-.111.484,0.346,0.346,0,0,0,.479.111,37.142,37.142,0,0,1,5.031-2.593v13.631a38.878,38.878,0,0,0-5.91,2.8V471.2a0.354,0.354,0,0,0-.193-0.315,8,8,0,0,0-3.284-.739,22.367,22.367,0,0,0-5.658.716,0.351,0.351,0,0,0-.253.338v15.449a0.356,0.356,0,0,0,.138.28,0.346,0.346,0,0,0,.21.071,0.341,0.341,0,0,0,.095-0.014,22.127,22.127,0,0,1,5.468-.688,7.469,7.469,0,0,1,2.781.578V487.7h-8.344a1.05,1.05,0,0,1-1.043-1.053V472.955a0.348,0.348,0,1,0-.695,0v13.694a1.749,1.749,0,0,0,1.738,1.755h17.384a1.749,1.749,0,0,0,1.738-1.755V472.955A0.349,0.349,0,0,0,426.117,472.6Zm-8.654,2.617a0.349,0.349,0,0,0,.311.192,0.343,0.343,0,0,0,.157-0.038,29.6,29.6,0,0,1,3.076-1.383,0.351,0.351,0,0,0,.227-0.44,0.348,0.348,0,0,0-.437-0.23,29.9,29.9,0,0,0-3.182,1.427A0.353,0.353,0,0,0,417.463,475.221Zm0,4.214a0.349,0.349,0,0,0,.311.191,0.343,0.343,0,0,0,.157-0.038,29.882,29.882,0,0,1,3.076-1.382,0.353,0.353,0,0,0,.227-0.441,0.347,0.347,0,0,0-.437-0.229,29.742,29.742,0,0,0-3.182,1.426A0.354,0.354,0,0,0,417.463,479.435Zm-3.435-5.582a10.932,10.932,0,0,0-4.689.168,0.351,0.351,0,0,0,.09.69,0.348,0.348,0,0,0,.09-0.012,10.37,10.37,0,0,1,4.351-.162,0.348,0.348,0,0,0,.418-0.262A0.353,0.353,0,0,0,414.028,473.853Zm0,2.107a10.94,10.94,0,0,0-4.689.167,0.351,0.351,0,0,0,.09.69,0.347,0.347,0,0,0,.09-0.011,10.37,10.37,0,0,1,4.351-.162,0.348,0.348,0,0,0,.418-0.262A0.352,0.352,0,0,0,414.028,475.96Zm3.435,5.581a0.349,0.349,0,0,0,.311.192,0.343,0.343,0,0,0,.157-0.038,29.6,29.6,0,0,1,3.076-1.383,0.351,0.351,0,0,0,.227-0.44,0.347,0.347,0,0,0-.437-0.229,29.742,29.742,0,0,0-3.182,1.426A0.353,0.353,0,0,0,417.463,481.541Zm-3.435-3.474a10.922,10.922,0,0,0-4.689.167,0.351,0.351,0,0,0,.09.69,0.348,0.348,0,0,0,.09-0.012,10.406,10.406,0,0,1,4.351-.162A0.351,0.351,0,0,0,414.028,478.067Zm0,4.213a10.922,10.922,0,0,0-4.689.167,0.352,0.352,0,0,0,.09.691,0.348,0.348,0,0,0,.09-0.012,10.37,10.37,0,0,1,4.351-.162A0.351,0.351,0,0,0,414.028,482.28Zm0-2.107a10.915,10.915,0,0,0-4.689.168,0.351,0.351,0,0,0,.09.69,0.348,0.348,0,0,0,.09-0.012,10.37,10.37,0,0,1,4.351-.162,0.348,0.348,0,0,0,.418-0.262A0.353,0.353,0,0,0,414.028,480.173Z" transform="translate(-395 -458)"/>
</svg>
