<svg id="_11.svg" data-name="11.svg" xmlns="http://www.w3.org/2000/svg" width="42" height="42" viewBox="0 0 42 42">
  <defs>
    <style>
      .cls-1 {
        fill: #fff;
        fill-opacity: 0;
        stroke: #fbc02d;
        stroke-linejoin: round;
        stroke-width: 2px;
      }

      .cls-2 {
        fill-rule: evenodd;
      }
    </style>
  </defs>
  <circle id="Ellipse_7_copy_14" data-name="Ellipse 7 copy 14" class="cls-1" cx="21" cy="21" r="20"/>
  <path id="Forma_1" data-name="Forma 1" class="cls-2" d="M427.9,852.4a7.379,7.379,0,0,0-.326-1.736c-0.058-.185-0.12-0.364-0.187-0.532-0.011-.028-0.022-0.056-0.033-0.081a4.617,4.617,0,0,0,.1-1.1,0.914,0.914,0,0,0-.5-0.793,0.946,0.946,0,0,0-.951.041,3.924,3.924,0,0,0-.555.425,9.947,9.947,0,0,0-5.093,0,4.122,4.122,0,0,0-.555-0.425,0.948,0.948,0,0,0-.952-0.041,0.916,0.916,0,0,0-.5.793,4.67,4.67,0,0,0,.1,1.1,7.362,7.362,0,0,0-.311.923h-2.077a10.878,10.878,0,0,0-8.335,3.838,17.743,17.743,0,0,1,2.418-4.338,1.57,1.57,0,0,0,.013-1.952,1.643,1.643,0,0,0-2.7.166,36.97,36.97,0,0,0-2.725,5.646,22.34,22.34,0,0,0-1.589,7.783v0.042a2.939,2.939,0,0,0,2.962,2.883H424.75a0.4,0.4,0,0,0,.3-0.136,0.382,0.382,0,0,0,.09-0.312,1.653,1.653,0,0,0-.728-1.067,3.437,3.437,0,0,0-.763-0.413,9.252,9.252,0,0,0-1-2.089c3.645-2.04,3.915-4.435,3.9-5.192A3.969,3.969,0,0,0,427.9,852.4Zm-8.684-2.151a0.38,0.38,0,0,0,.024-0.253,3.885,3.885,0,0,1-.108-1.02,0.144,0.144,0,0,1,.082-0.129,0.152,0.152,0,0,1,.155.007,3.525,3.525,0,0,1,.59.479,0.4,0.4,0,0,0,.393.1,9.146,9.146,0,0,1,5.092,0,0.4,0.4,0,0,0,.393-0.1,3.53,3.53,0,0,1,.591-0.479,0.151,0.151,0,0,1,.155-0.007,0.145,0.145,0,0,1,.081.129,3.843,3.843,0,0,1-.108,1.02,0.38,0.38,0,0,0,.025.254,5.591,5.591,0,0,1,.27,3.9,3.19,3.19,0,0,1-1.975,1.725,11.476,11.476,0,0,1-3.956,0,3.193,3.193,0,0,1-1.975-1.725A5.6,5.6,0,0,1,419.219,850.252ZM403.93,862.158V862.12c0-2.212.547-6.847,4.207-13.039a0.844,0.844,0,0,1,1.387-.086,0.8,0.8,0,0,1-.006,1c-2.806,3.5-4.017,9.182-4.067,9.423,0,0,0,0,0,.008a10.746,10.746,0,0,0-.186,1.2l-0.118,1.244c0,0.012,0,.024,0,0.036v2.136A2.126,2.126,0,0,1,403.93,862.158Zm14.093,0.437-0.006-.019,0.029,0.024Zm1.166,0.927,0.924,0.746h-0.779v-0.061A1.6,1.6,0,0,0,419.189,863.522Zm6.236-6.256a7.235,7.235,0,0,1-3.216,3.112,13.351,13.351,0,0,0-1.018-1.266,0.4,0.4,0,0,0-.559-0.022,0.382,0.382,0,0,0-.023.548,11.4,11.4,0,0,1,2.335,3.879,0.39,0.39,0,0,0,.257.265,2.609,2.609,0,0,1,.882.486h-2.725l-3.768-3.042-0.684-2.164a5.245,5.245,0,0,0-5.563-3.586,5.166,5.166,0,0,0-4.67,5.109v1.276a0.4,0.4,0,0,0,.791,0v-1.276a4.385,4.385,0,0,1,3.964-4.337,4.453,4.453,0,0,1,4.722,3.044l1.021,3.23a12.191,12.191,0,0,1-2.568-.709h0a0.4,0.4,0,0,0-.517.209,0.385,0.385,0,0,0,.212.508,11.21,11.21,0,0,0,3.409.806,0.861,0.861,0,0,1,.837.861v0.071H406.1c-0.056,0-.112,0-0.168-0.007V861.93l0.117-1.225a9.783,9.783,0,0,1,3.238-6.378,10.135,10.135,0,0,1,6.768-2.573h1.911a4.969,4.969,0,0,0,.248,2.694,3.949,3.949,0,0,0,2.432,2.158,11.442,11.442,0,0,0,4.506,0,5.458,5.458,0,0,0,.554-0.236A3.774,3.774,0,0,1,425.425,857.266Z" transform="translate(-395 -835)"/>
</svg>
