<svg id="_7.svg" data-name="7.svg" xmlns="http://www.w3.org/2000/svg" width="42" height="42" viewBox="0 0 42 42">
  <defs>
    <style>
      .cls-1 {
        fill: #fff;
        fill-opacity: 0;
        stroke: #fbc02d;
        stroke-linejoin: round;
        stroke-width: 2px;
      }

      .cls-2 {
        fill-rule: evenodd;
      }
    </style>
  </defs>
  <circle id="Ellipse_7_copy_10" data-name="Ellipse 7 copy 10" class="cls-1" cx="21" cy="21" r="20"/>
  <path id="Forma_1" data-name="Forma 1" class="cls-2" d="M424.475,603.992a3.041,3.041,0,0,0-.037-3.455,3.469,3.469,0,0,0-1.653-4.515l-0.012,0-2.938-1.255c0.007-.08.012-0.161,0.012-0.243a2.553,2.553,0,0,0-.553-1.594,0.29,0.29,0,0,0-.226-0.11h-6.061a0.29,0.29,0,0,0-.226.11,2.553,2.553,0,0,0-.553,1.594c0,0.082,0,.163.012,0.243l-2.938,1.255-0.012,0a3.47,3.47,0,0,0-1.653,4.515,9.192,9.192,0,0,1-.557,5.156,3.04,3.04,0,0,1,0,3.4,3.05,3.05,0,0,1,.222,2.912,0.289,0.289,0,0,0,.288.291h2.5v1.291a0.29,0.29,0,0,0,.289.292h11.381a0.29,0.29,0,0,0,.288-0.292V612.3h2.439a0.29,0.29,0,0,0,.289-0.291A3.044,3.044,0,0,1,425,609.1a3.042,3.042,0,0,1,0-3.4A3.006,3.006,0,0,0,424.475,603.992Zm-0.488,6.492h-1.856a2.581,2.581,0,0,0,.134-0.823,2.547,2.547,0,0,0-.422-1.413,2.574,2.574,0,0,0,.276-0.553h1.86A2.448,2.448,0,0,1,423.987,610.484Zm-15.9,0a2.453,2.453,0,0,1,.013-2.8h1.917a1.45,1.45,0,0,1-.142,1.976,2.581,2.581,0,0,0,.134.823h-1.922Zm0.013-9.6H409.9a2.574,2.574,0,0,0-.018.305,2.128,2.128,0,0,1,.016,2.534h-1.777A2.455,2.455,0,0,1,408.1,600.881Zm15.871,0a2.455,2.455,0,0,1-.014,2.839h-1.711a2.13,2.13,0,0,1,.017-2.534,2.574,2.574,0,0,0-.018-0.305h1.726Zm-0.007,6.231H422.25a2.551,2.551,0,0,1,0-2.81h1.738A2.45,2.45,0,0,1,423.966,607.112Zm-2.625-4.222a1.984,1.984,0,0,1,0,2.242H410.8a1.984,1.984,0,0,1,0-2.242h10.54Zm-10.54,5.067a1.984,1.984,0,0,1,0-2.242h10.54a1.984,1.984,0,0,1,0,2.242H410.8Zm10.54-7.892a1.984,1.984,0,0,1,0,2.242H410.8a1.984,1.984,0,0,1,0-2.242h10.54ZM408.089,604.3h1.8a2.128,2.128,0,0,1-.016,2.534,2.6,2.6,0,0,0,.014.266H408.1A2.454,2.454,0,0,1,408.089,604.3Zm2.712,6.48a1.984,1.984,0,0,1,0-2.242h10.54a1.984,1.984,0,0,1,0,2.242H410.8Zm-1.269-14.231,2.83-1.209a2.575,2.575,0,0,0,.419.771,0.287,0.287,0,0,0,.406.046,0.293,0.293,0,0,0,.045-0.409,1.994,1.994,0,0,1-.316-1.889,1.014,1.014,0,0,0,.807.443h1.642a0.381,0.381,0,0,1,.378.383,0.342,0.342,0,0,0,0,.045v2.557a0.289,0.289,0,1,0,.577,0v-2.557a0.342,0.342,0,0,0,0-.045,0.38,0.38,0,0,1,.378-0.382h1.613l0.029,0a1.017,1.017,0,0,0,.81-0.446,1.994,1.994,0,0,1-.315,1.892,0.293,0.293,0,0,0,.045.409,0.286,0.286,0,0,0,.406-0.046,2.575,2.575,0,0,0,.419-0.771l2.83,1.209a2.883,2.883,0,0,1,1.368,3.748h-1.8a0.714,0.714,0,0,1,.01-1.161,0.294,0.294,0,0,0-.175-0.373,0.287,0.287,0,0,0-.368.176,1.96,1.96,0,0,1-.294.541h-10.42a1.96,1.96,0,0,1-.294-0.541,0.289,0.289,0,0,0-.369-0.176,0.292,0.292,0,0,0-.174.373,0.714,0.714,0,0,1,.01,1.161h-1.87A2.883,2.883,0,0,1,409.532,596.551Zm-1.469,14.516h1.647l-0.363.647H407.9A2.41,2.41,0,0,1,408.063,611.067Zm8.261,2.23v-0.446a0.289,0.289,0,1,0-.577,0V613.3h-5.082v-1.014a2.447,2.447,0,0,1,.177-0.918h10.45a2.447,2.447,0,0,1,.177.918V613.3h-5.145Zm6.4-1.583-0.363-.647h1.647a2.41,2.41,0,0,1,.168.647h-1.452Z" transform="translate(-395 -583)"/>
</svg>
