<svg id="_10.svg" data-name="10.svg" xmlns="http://www.w3.org/2000/svg" width="42" height="42" viewBox="0 0 42 42">
  <defs>
    <style>
      .cls-1 {
        fill: #fff;
        fill-opacity: 0;
        stroke: #fbc02d;
        stroke-linejoin: round;
        stroke-width: 2px;
      }

      .cls-2 {
        fill-rule: evenodd;
      }
    </style>
  </defs>
  <circle id="Ellipse_7_copy_13" data-name="Ellipse 7 copy 13" class="cls-1" cx="21" cy="21" r="20"/>
  <path id="Forma_1" data-name="Forma 1" class="cls-2" d="M426.657,786.341c-0.344-1.738-1.674-3.232-3.954-4.441a0.5,0.5,0,0,0-.508-0.025,0.724,0.724,0,0,0-.276.388c-0.065.183-.728,1.77-5.673,7.195-0.582.638-1.106,1.238-1.613,1.818a18.473,18.473,0,0,1-3.42,3.386,2.881,2.881,0,0,1-1.483.5,1.5,1.5,0,0,1-1.173-.546,0.542,0.542,0,0,0-.5-0.179c-0.328.057-3.224,0.6-4.233,2.236a3.731,3.731,0,0,0-.64,2.016,5.2,5.2,0,0,0,.614,2.25,3.533,3.533,0,0,0,2.739,1.937c0.022,0,6.917,0,6.94,0,0.448,0,1.959-.18,3.092-4.5,0.455-1.736,1.182-4.556,3.563-6.264a3.053,3.053,0,0,1,.342,1.464c0,0.063.093,6.356,0.2,8.775a0.546,0.546,0,0,0,.543.523h1.567a0.541,0.541,0,0,0,.386-0.163,0.548,0.548,0,0,0,.156-0.392,59.388,59.388,0,0,1,.287-7.933,9.829,9.829,0,0,1,1.941-3.811l0.007-.009,0.011-.012A5.483,5.483,0,0,0,426.657,786.341Zm-13.175,15.445a0.162,0.162,0,0,0-.046,0h-6.8a2.614,2.614,0,0,1-2.076-1.766c1.384,0.135,3.236.213,5.078,0.213h0c1.657,0,3.175-.064,4.276-0.181,0.439-.046.8-0.1,1.1-0.158C414.374,801.655,413.584,801.778,413.482,801.786Zm9.076-7.666a53.649,53.649,0,0,0-.326,7.666h-0.5c-0.1-2.681-.175-8.162-0.176-8.223a4.273,4.273,0,0,0-.5-2,8.485,8.485,0,0,1,3.024-.843A11.123,11.123,0,0,0,422.558,794.12Zm2.336-4.487c-0.159-.013-0.322-0.019-0.486-0.019a9.4,9.4,0,0,0-4.2,1.161c-3.271,1.861-4.192,5.419-4.687,7.33-0.055.21-.1,0.4-0.149,0.562-0.419.2-2.2,0.473-5.73,0.473-1.949,0-3.947-.089-5.319-0.238a1.98,1.98,0,0,1,.428-1.655c0.575-.921,2.317-1.478,3.217-1.676a2.553,2.553,0,0,0,1.764.686,3.922,3.922,0,0,0,2.052-.666A18.946,18.946,0,0,0,415.448,792c0.5-.576,1.024-1.171,1.6-1.8,3.766-4.132,5.145-6.136,5.65-7.051a5.442,5.442,0,0,1,2.895,3.4A4.312,4.312,0,0,1,424.894,789.633Z" transform="translate(-395 -772)"/>
</svg>
