<svg id="_9.svg" data-name="9.svg" xmlns="http://www.w3.org/2000/svg" width="42" height="42" viewBox="0 0 42 42">
  <defs>
    <style>
      .cls-1 {
        fill: #fff;
        fill-opacity: 0;
        stroke: #fbc02d;
        stroke-linejoin: round;
        stroke-width: 2px;
      }

      .cls-2 {
        fill-rule: evenodd;
      }
    </style>
  </defs>
  <circle id="Ellipse_7_copy_12" data-name="Ellipse 7 copy 12" class="cls-1" cx="21" cy="21" r="20"/>
  <path id="Forma_1" data-name="Forma 1" class="cls-2" d="M426.87,726.25c-0.238-.481-2.353-4.72-3.46-5.478a31.53,31.53,0,0,0-3.785-1.9l-0.127-.055-0.136.026a13.2,13.2,0,0,1-6.653,0l-0.136-.026-0.128.055a31.713,31.713,0,0,0-3.785,1.9c-1.107.759-3.222,5-3.459,5.479l-0.087.176,0.068,0.186c0.028,0.077.733,1.9,3.841,2.321l0.269,0.036,0.955-1.337c0.429,2.472-.183,8.293-0.941,11.1l-0.109.4,0.388,0.145c0.066,0.025,1.669.6,6.45,0.6s6.385-.579,6.45-0.6l0.389-.145-0.109-.4c-0.758-2.8-1.371-8.623-.941-11.1l0.954,1.337,0.27-.036c3.107-.417,3.813-2.244,3.841-2.321l0.068-.186Zm-8.34-6.336a3.345,3.345,0,0,1-4.99,0A11.834,11.834,0,0,0,418.53,719.914Zm6.971,7.067a4.511,4.511,0,0,1-2.307,1.006l-1.6-2.246-0.338.666c-0.326.643-.656,2.19-0.377,5.917a42.675,42.675,0,0,0,.9,6.2,27.224,27.224,0,0,1-5.742.44,28.491,28.491,0,0,1-5.742-.438,42.5,42.5,0,0,0,.9-6.2c0.279-3.727-.051-5.274-0.377-5.917l-0.338-.666-1.6,2.246a3.771,3.771,0,0,1-2.762-1.536c0.877-1.749,2.395-4.472,3.055-4.924a27.1,27.1,0,0,1,3.242-1.647,4.364,4.364,0,0,0,.624.827,4.255,4.255,0,0,0,6,0,4.311,4.311,0,0,0,.623-0.827,26.954,26.954,0,0,1,3.242,1.647c0.66,0.452,2.178,3.173,3.055,4.923A2.463,2.463,0,0,1,425.5,726.981Z" transform="translate(-395 -709)"/>
</svg>
