<svg id="_4.svg" data-name="4.svg" xmlns="http://www.w3.org/2000/svg" width="42" height="42" viewBox="0 0 42 42">
  <defs>
    <style>
      .cls-1 {
        fill: #fff;
        fill-opacity: 0;
        stroke: #fbc02d;
        stroke-linejoin: round;
        stroke-width: 2px;
      }

      .cls-2 {
        fill-rule: evenodd;
      }
    </style>
  </defs>
  <circle id="Ellipse_7_copy_7" data-name="Ellipse 7 copy 7" class="cls-1" cx="21" cy="21" r="20"/>
  <path id="Forma_1" data-name="Forma 1" class="cls-2" d="M420.986,414.856v-1.42a8.64,8.64,0,0,0,.6-3.588,15.166,15.166,0,0,1,.632-3.437l0.132-.446-2.931-.674-0.1.421a3.348,3.348,0,0,1-2.577,2.369l-0.287.051-0.064.283c-0.146.65-.265,1.087-0.357,1.38-0.091-.293-0.21-0.73-0.357-1.38l-0.063-.283-0.287-.051a3.318,3.318,0,0,1-2.577-2.369l-0.1-.421-2.931.674,0.132,0.446a15.166,15.166,0,0,1,.632,3.437,8.661,8.661,0,0,0,.6,3.588v1.412l-4.256,9.595,0.248,0.211c0.081,0.069,2.07,1.7,8.956,1.7s8.875-1.629,8.956-1.7l0.248-.211Zm-9.023-.352v-0.62h8.149v0.62h-8.149Zm0.078-8.176a4.62,4.62,0,0,0,.5.927,4,4,0,0,0,2.349,1.626c0.119,0.509.232,0.929,0.337,1.251a0.832,0.832,0,1,0,1.621,0c0.1-.322.218-0.742,0.337-1.251a4,4,0,0,0,2.349-1.626,4.62,4.62,0,0,0,.5-0.927l1.224,0.282a13.431,13.431,0,0,0-.542,3.275,7.91,7.91,0,0,1-.5,3.125h-8.356a7.872,7.872,0,0,1-.5-3.125,13.431,13.431,0,0,0-.542-3.275Zm10.653,18.4a30.006,30.006,0,0,1-13.316,0,7.317,7.317,0,0,1-1.463-.575l3.895-8.778h1.622l-0.858,3.809,0.853,0.192,0.9-4h3.376l0.9,4,0.853-.192-0.858-3.809h1.659l3.895,8.778A7.3,7.3,0,0,1,422.694,424.731Z" transform="translate(-395 -395)"/>
</svg>
