<svg id="_2.svg" data-name="2.svg" xmlns="http://www.w3.org/2000/svg" width="42" height="42" viewBox="0 0 42 42">
  <defs>
    <style>
      .cls-1 {
        fill: #fff;
        fill-opacity: 0;
        stroke: #fbc02d;
        stroke-linejoin: round;
        stroke-width: 2px;
      }

      .cls-2 {
        fill-rule: evenodd;
      }
    </style>
  </defs>
  <circle id="Ellipse_7_copy_5" data-name="Ellipse 7 copy 5" class="cls-1" cx="21" cy="21" r="20"/>
  <path class="cls-2" d="M403.487,295.377a16.18,16.18,0,0,1-.681-2.8c-0.129-2.05-.359-4.134.358-6.131a1.276,1.276,0,0,0-.132-1.455,1.927,1.927,0,0,1,.453-2.648,1.958,1.958,0,0,1,2.667.192,0.431,0.431,0,0,0,.591.115,8.545,8.545,0,0,1,3.534-.742c3.7,0.007,7.4.014,11.1,0a8.9,8.9,0,0,1,4.3.814,2.029,2.029,0,1,1,3.041,2.67,0.446,0.446,0,0,0-.123.6,8.152,8.152,0,0,1,.722,3.533c-0.04,1.322-.063,2.647-0.178,3.963a6.3,6.3,0,0,1-.492,1.585,0.4,0.4,0,0,0,.087.5,2.033,2.033,0,0,1-1.283,3.45,1.978,1.978,0,0,1-1.805-.874,9.25,9.25,0,0,1-3.213.865c-0.206.016-.413,0.029-0.62,0.029q-5.776,0-11.554,0a8.274,8.274,0,0,1-3.885-.813A2.047,2.047,0,1,1,403.487,295.377Zm25.018,1.629a1.181,1.181,0,0,0-.571-1.048c-0.433-.3-0.423-0.361-0.21-0.85a6.038,6.038,0,0,0,.591-1.678c0.133-1.271.14-2.555,0.188-3.835a7.726,7.726,0,0,0-.862-3.746c-0.232-.471-0.2-0.565.241-0.831a1.212,1.212,0,0,0,.607-1.309,1.2,1.2,0,0,0-2.213-.386c-0.26.409-.388,0.45-0.8,0.219a6.559,6.559,0,0,0-3.258-.806c-3.947,0-7.895.009-11.843,0a8.055,8.055,0,0,0-3.786.892c-0.44.226-.556,0.188-0.8-0.232A1.207,1.207,0,1,0,404.115,285c0.408,0.267.393,0.349,0.206,0.817a8.466,8.466,0,0,0-.67,2.046c-0.135,1.129-.1,2.28-0.131,3.421a7.866,7.866,0,0,0,.9,3.864,0.477,0.477,0,0,1-.209.751,1.182,1.182,0,0,0-.668,1.311,1.228,1.228,0,0,0,.952.986,1.189,1.189,0,0,0,1.288-.627,0.457,0.457,0,0,1,.719-0.2,6.833,6.833,0,0,0,3.538.853h11.719a7.959,7.959,0,0,0,3.591-.848c0.571-.284.6-0.277,0.943,0.269A1.2,1.2,0,0,0,428.505,297.006Zm-24.263-6.564c0.1-1.078.2-2.158,0.317-3.235a2.083,2.083,0,0,1,.184-0.595,0.838,0.838,0,0,1,.8-0.616,0.8,0.8,0,0,1,.76.6,4.366,4.366,0,0,1,.267,1,21.527,21.527,0,0,1-.1,6.239,1.291,1.291,0,0,1-.232.615,1.559,1.559,0,0,1-.707.482,0.618,0.618,0,0,1-.706-0.463,10.611,10.611,0,0,1-.419-1.815c-0.089-.73-0.078-1.472-0.111-2.209Zm1.657-1.211c-0.015-.288-0.028-0.531-0.041-0.776H405.2c-0.016.267-.031,0.51-0.047,0.776h0.75Zm-0.692,3.256h0.656v-0.766h-0.726Zm0.671-1.637c0.132-.8.055-0.875-0.723-0.739v0.739h0.723Zm-0.115-3.269c-0.074-.245-0.136-0.453-0.2-0.662l-0.086.009c-0.061.207-.121,0.414-0.19,0.653h0.475Zm-0.478,5.775c0.075,0.259.135,0.466,0.2,0.673l0.09,0.006c0.06-.212.119-0.425,0.189-0.679h-0.475Z" transform="translate(-395 -269)"/>
</svg>
