<svg id="_1.svg" data-name="1.svg" xmlns="http://www.w3.org/2000/svg" width="42" height="42" viewBox="0 0 42 42">
  <defs>
    <style>
      .cls-1 {
        fill: #fff;
        fill-opacity: 0;
        stroke: #fbc02d;
        stroke-linejoin: round;
        stroke-width: 2px;
      }

      .cls-2 {
        fill-rule: evenodd;
      }
    </style>
  </defs>
  <circle class="cls-1" cx="21" cy="21" r="20"/>
  <path id="Forma_1" data-name="Forma 1" class="cls-2" d="M415.323,231.25a2.4,2.4,0,1,0,2.407,2.4A2.406,2.406,0,0,0,415.323,231.25Zm0,4.138a1.738,1.738,0,1,1,1.743-1.738A1.742,1.742,0,0,1,415.323,235.388Zm9.858,1.5-0.478-1a1.138,1.138,0,0,0-1.023-.645h-0.739V220.587a4.308,4.308,0,0,0-8.616,0v6.052a5.637,5.637,0,0,0-4.62,5.531V233.4h-0.852a0.331,0.331,0,0,0-.332.331v2.184a0.332,0.332,0,0,0,.332.331h0.906a1.52,1.52,0,0,0,1.465,1.115h4.1a3.7,3.7,0,0,0,2.389-6.542v-2.973a1.3,1.3,0,0,0-1.3-1.294H416.36v-5.96a2.274,2.274,0,0,1,4.547,0v14.651h-0.739a1.137,1.137,0,0,0-1.023.645l-0.478,1a0.331,0.331,0,0,0,.3.473h5.915A0.331,0.331,0,0,0,425.181,236.883Zm-16-2.826h0.521v1.522h-0.521v-1.522Zm9.192-.407a3.053,3.053,0,1,1-3.053-3.044A3.052,3.052,0,0,1,418.376,233.65Zm-1.327-5.809v2.529a3.706,3.706,0,0,0-3.841,6.324h-1.984a0.854,0.854,0,0,1-.855-0.853V232.17a4.973,4.973,0,0,1,4.974-4.961h1.072A0.634,0.634,0,0,1,417.049,227.841Zm-1.353-7.254v5.96h-0.353q-0.179,0-.354.012v-5.972a3.643,3.643,0,0,1,3.313-3.618v0.709A2.936,2.936,0,0,0,415.7,220.587Zm3.269-2.909v-0.709a3.643,3.643,0,0,1,3.313,3.618v0.358H421.57v-0.358A2.935,2.935,0,0,0,418.965,217.678Zm2.605,3.929h0.708v13.631H421.57V221.607Zm-2.078,15.087,0.252-.527a0.472,0.472,0,0,1,.424-0.267h3.512a0.472,0.472,0,0,1,.424.267l0.252,0.527h-4.864Z" transform="translate(-395 -206)"/>
</svg>
